<mxfile host="app.diagrams.net" agent="Mozilla/5.0 (Windows NT 10.0; Win64; x64; rv:140.0) Gecko/20100101 Firefox/140.0" version="28.0.6">
  <diagram name="PÃ¡gina-1" id="j7RnMGTpZR6keQAgodJ_">
    <mxGraphModel dx="1426" dy="779" grid="1" gridSize="10" guides="1" tooltips="1" connect="1" arrows="1" fold="1" page="1" pageScale="1" pageWidth="827" pageHeight="1169" math="0" shadow="0">
      <root>
        <mxCell id="0" />
        <mxCell id="1" parent="0" />
        <mxCell id="BU5A8XL2uaZ9xasmmr-x-1" value="Main" style="ellipse;whiteSpace=wrap;html=1;aspect=fixed;fontSize=15;fillColor=#1ba1e2;fontColor=light-dark(#FFFFFF,#FFFFFF);strokeColor=#006EAF;" vertex="1" parent="1">
          <mxGeometry x="80" y="80" width="100" height="100" as="geometry" />
        </mxCell>
        <mxCell id="BU5A8XL2uaZ9xasmmr-x-2" value="Dataclass" style="ellipse;whiteSpace=wrap;html=1;aspect=fixed;fontSize=15;fontColor=default;fillColor=light-dark(#0050EF,#0000FF);strokeColor=#001DBC;" vertex="1" parent="1">
          <mxGeometry x="200" y="80" width="100" height="100" as="geometry" />
        </mxCell>
        <mxCell id="BU5A8XL2uaZ9xasmmr-x-3" value="&lt;div&gt;Port scanner&lt;/div&gt;&lt;div&gt;Network mapper&lt;/div&gt;" style="ellipse;whiteSpace=wrap;html=1;aspect=fixed;fontSize=15;fontColor=default;fillColor=#60a917;strokeColor=#2D7600;" vertex="1" parent="1">
          <mxGeometry x="440" y="80" width="100" height="100" as="geometry" />
        </mxCell>
        <mxCell id="BU5A8XL2uaZ9xasmmr-x-4" value="Sniffer" style="ellipse;whiteSpace=wrap;html=1;aspect=fixed;fontSize=15;fontColor=#000000;fillColor=#e3c800;strokeColor=#B09500;" vertex="1" parent="1">
          <mxGeometry x="380" y="200" width="100" height="100" as="geometry" />
        </mxCell>
        <mxCell id="BU5A8XL2uaZ9xasmmr-x-5" value="Packet sender" style="ellipse;whiteSpace=wrap;html=1;aspect=fixed;fontSize=15;fontColor=#000000;fillColor=#f0a30a;strokeColor=#BD7000;" vertex="1" parent="1">
          <mxGeometry x="260" y="200" width="100" height="100" as="geometry" />
        </mxCell>
        <mxCell id="BU5A8XL2uaZ9xasmmr-x-6" value="Banner grabber" style="ellipse;whiteSpace=wrap;html=1;aspect=fixed;fontSize=15;fontColor=default;fillColor=#008a00;strokeColor=#005700;" vertex="1" parent="1">
          <mxGeometry x="560" y="80" width="100" height="100" as="geometry" />
        </mxCell>
        <mxCell id="BU5A8XL2uaZ9xasmmr-x-7" value="Argument parser manager" style="ellipse;whiteSpace=wrap;html=1;aspect=fixed;fontSize=15;fontColor=default;fillColor=#6d8764;strokeColor=#3A5431;" vertex="1" parent="1">
          <mxGeometry x="320" y="80" width="100" height="100" as="geometry" />
        </mxCell>
        <mxCell id="BU5A8XL2uaZ9xasmmr-x-8" value="Packet Builder" style="ellipse;whiteSpace=wrap;html=1;aspect=fixed;fontSize=15;fontColor=default;fillColor=#647687;strokeColor=#314354;" vertex="1" parent="1">
          <mxGeometry x="140" y="200" width="100" height="100" as="geometry" />
        </mxCell>
        <mxCell id="BU5A8XL2uaZ9xasmmr-x-9" value="Dissector" style="ellipse;whiteSpace=wrap;html=1;aspect=fixed;fontSize=15;fontColor=default;fillColor=light-dark(#E51400,#CC0000);strokeColor=#B20000;" vertex="1" parent="1">
          <mxGeometry x="500" y="200" width="100" height="100" as="geometry" />
        </mxCell>
      </root>
    </mxGraphModel>
  </diagram>
</mxfile>
